<svg width="220" height="220" viewBox="0 0 220 220" fill="none" xmlns="http://www.w3.org/2000/svg">
<circle cx="110" cy="110" r="105" fill="white" stroke="black" stroke-width="10"/>
<path d="M25.2727 98.5682V90.4545H63.5V98.5682H49.25V137H39.5227V98.5682H25.2727Z" fill="black"/>
<path d="M161.045 134V87.4545H192.409V95.5682H170.886V106.659H190.795V114.773H170.886V125.886H192.5V134H161.045Z" fill="black"/>
<path d="M93.0455 196V149.455H111.409C114.924 149.455 117.924 150.083 120.409 151.341C122.909 152.583 124.811 154.348 126.114 156.636C127.432 158.909 128.091 161.583 128.091 164.659C128.091 167.75 127.424 170.409 126.091 172.636C124.758 174.848 122.826 176.545 120.295 177.727C117.78 178.909 114.735 179.5 111.159 179.5H98.8636V171.591H109.568C111.447 171.591 113.008 171.333 114.25 170.818C115.492 170.303 116.417 169.53 117.023 168.5C117.644 167.47 117.955 166.189 117.955 164.659C117.955 163.114 117.644 161.811 117.023 160.75C116.417 159.689 115.485 158.886 114.227 158.341C112.985 157.78 111.417 157.5 109.523 157.5H102.886V196H93.0455ZM118.182 174.818L129.75 196H118.886L107.568 174.818H118.182Z" fill="black"/>
<path d="M114.886 24.4545V71H105.045V24.4545H114.886Z" fill="black"/>
<path d="M145.156 75.4451L115.368 116.367L104.234 105.233L145.156 75.4451Z" fill="black"/>
<path d="M74.4452 146.156L104.234 105.233L115.368 116.367L74.4452 146.156Z" fill="black"/>
<path d="M145.156 145.976L104.233 116.188L115.367 105.054L145.156 145.976Z" fill="black"/>
<path d="M74.4451 75.2655L115.368 105.054L104.233 116.188L74.4451 75.2655Z" fill="black"/>
<circle cx="110" cy="110" r="12.5" fill="black" stroke="black" stroke-width="5"/>
</svg>
